<svg xmlns="http://www.w3.org/2000/svg" viewBox="0 0 64 64" role="img" aria-labelledby="title">
  <title id="title">Operon Kitchens app icon</title>
  <rect width="64" height="64" rx="14" fill="#FFFFFF"/>
  <g transform="translate(6 6)" fill="none" stroke-linecap="square" stroke-linejoin="miter">
    <path d="M26 0A26 26 0 0 0 0 26" stroke="#08233F" stroke-width="4.4"/>
    <path d="M52 26A26 26 0 0 0 26 0" stroke="#08233F" stroke-width="4.4"/>
    <path d="M26 52A26 26 0 0 0 52 26" stroke="#08233F" stroke-width="4.4"/>
    <path d="M0 26A26 26 0 0 0 26 52" stroke="#08233F" stroke-width="4.4"/>
    <g fill="#08233F" stroke="none">
      <rect x="23.2" y="3" width="5.6" height="18"/>
      <rect x="23.2" y="31" width="5.6" height="18"/>
      <rect x="3" y="23.2" width="18" height="5.6"/>
      <rect x="31" y="23.2" width="18" height="5.6"/>
      <path d="M16 16.5h10v5h-5v5H16z"/>
      <path d="M26 16.5h10v10h-5v-5h-5z"/>
      <path d="M16 26h5v5h5v5H16z"/>
      <path d="M31 26h5v10H26v-5h5z"/>
    </g>
    <path d="M10.5 10.5l10 10M41.5 10.5l-10 10M10.5 41.5l10-10M41.5 41.5l-10-10" stroke="#B8842C" stroke-width="2.6"/>
    <circle cx="26" cy="26" r="8" fill="#fff" stroke="#B8842C" stroke-width="5"/>
    <g fill="#B8842C" stroke="none">
      <rect x="22.7" y="-3.3" width="6.6" height="6.6"/>
      <rect x="22.7" y="48.7" width="6.6" height="6.6"/>
      <rect x="-3.3" y="22.7" width="6.6" height="6.6"/>
      <rect x="48.7" y="22.7" width="6.6" height="6.6"/>
    </g>
  </g>
</svg>
