<svg xmlns="http://www.w3.org/2000/svg" viewBox="0 0 190 190" role="img" aria-labelledby="title desc">
  <title id="title">Operon emblem</title>
  <desc id="desc">Circular Operon master emblem in deep navy and muted gold.</desc>
  <g transform="translate(12 12)" fill="none" stroke-linecap="square" stroke-linejoin="miter">
    <path d="M83 0A83 83 0 0 0 0 83" stroke="#08233F" stroke-width="10"/>
    <path d="M166 83A83 83 0 0 0 83 0" stroke="#08233F" stroke-width="10"/>
    <path d="M83 166A83 83 0 0 0 166 83" stroke="#08233F" stroke-width="10"/>
    <path d="M0 83A83 83 0 0 0 83 166" stroke="#08233F" stroke-width="10"/>
    <g fill="#08233F" stroke="none">
      <rect x="75" y="9" width="16" height="59"/>
      <rect x="75" y="98" width="16" height="59"/>
      <rect x="9" y="75" width="59" height="16"/>
      <rect x="98" y="75" width="59" height="16"/>
      <path d="M54 55h29v14H68v14H54z"/>
      <path d="M83 55h29v28H98V69H83z"/>
      <path d="M54 83h14v14h15v14H54z"/>
      <path d="M98 83h14v28H83V97h15z"/>
    </g>
    <path d="M34 34l32 32M132 34l-32 32M34 132l32-32M132 132l-32-32" stroke="#B8842C" stroke-width="5.5"/>
    <circle cx="83" cy="83" r="25" fill="#fff" stroke="#B8842C" stroke-width="13"/>
    <g fill="#B8842C" stroke="none">
      <rect x="73" y="-10" width="20" height="20"/>
      <rect x="73" y="156" width="20" height="20"/>
      <rect x="-10" y="73" width="20" height="20"/>
      <rect x="156" y="73" width="20" height="20"/>
    </g>
  </g>
</svg>
