<svg xmlns="http://www.w3.org/2000/svg" viewBox="0 0 64 64" role="img" aria-labelledby="title">
  <title id="title">Operon Kitchens app icon</title>
  <rect width="64" height="64" rx="14" fill="#F7F4EE"/>
  <g transform="translate(10 10)" fill="none" stroke-linecap="square" stroke-linejoin="miter">
    <path d="M22 0A22 22 0 0 0 0 22" stroke="#08233F" stroke-width="4"/>
    <path d="M44 22A22 22 0 0 0 22 0" stroke="#08233F" stroke-width="4"/>
    <path d="M22 44A22 22 0 0 0 44 22" stroke="#08233F" stroke-width="4"/>
    <path d="M0 22A22 22 0 0 0 22 44" stroke="#08233F" stroke-width="4"/>
    <path d="M22 6v12M22 26v12M6 22h12M26 22h12" stroke="#08233F" stroke-width="3.5"/>
    <path d="M11 11l7 7M33 11l-7 7M11 33l7-7M33 33l-7-7" stroke="#B8842C" stroke-width="3"/>
    <circle cx="22" cy="22" r="7" fill="#F7F4EE" stroke="#B8842C" stroke-width="4"/>
    <g fill="#B8842C" stroke="none">
      <rect x="19" y="-2" width="6" height="6"/>
      <rect x="19" y="40" width="6" height="6"/>
      <rect x="-2" y="19" width="6" height="6"/>
      <rect x="40" y="19" width="6" height="6"/>
    </g>
  </g>
</svg>
